<svg xmlns="http://www.w3.org/2000/svg" viewBox="0 0 62.52 63.06"><defs><style>.cls-1{fill:#fff;}</style></defs><g id="Layer_2" data-name="Layer 2"><g id="Layer_1-2" data-name="Layer 1"><path class="cls-1" d="M55.38,3.62c-4.44,0-34.07,47.54-33.8,53.29,0,0,4.34,2.58,5.28,2.54,2.49-.12,14.62-12.59,14.6-13s-2.63-1.84-3.2-1.84c-.73,0-9.5,11-11.51,11.11-4.21.19,25.54-46.85,29.86-47C58.24,8.6,41.27,36.2,41.3,36.82S44.58,39.3,45,39.28,62.61,8.42,62.52,6.42C62.48,5.63,56.73,3.55,55.38,3.62Z"/><path class="cls-1" d="M6.27,28.44C4.36,37.69,0,43.21,0,44.73c0,1.05,2.9,2.58,3.52,2.58s7.72-9.72,7.72-9.72-4.5,22.32-4.5,22.75,3.19,2.72,4.06,2.72S34.52,15.71,44.52,2.75C46.08,1.19,42.21,0,41.58,0S16.3,40.31,13.15,50.69c0-1.75,3.31-17.06,3.31-18s-2.53-1.94-3.28-1.94-4.57,4.06-4.57,4.06a39.19,39.19,0,0,0,1.75-4.25C10.36,30.13,8.71,28.44,6.27,28.44Z"/></g></g></svg>