<svg xmlns="http://www.w3.org/2000/svg" viewBox="0 0 128.12 63.06"><defs><style>.cls-1{fill:#111827;}</style></defs><g id="Layer_2" data-name="Layer 2"><g id="Layer_1-2" data-name="Layer 1"><path class="cls-1" d="M31.16,34.75c-.78,0-9,9.72-9,10.28s1.94,2,2.35,2,5.19-2.62,5.19-2.62S30.63,46,31,46s4.28-2,4.28-2,1.47,2.09,2,2.09,5.19-3.65,5.19-3.65,1.53,1.34,1.93,1.34.88-.56.88-.56,2,1.84,2.5,1.84a14.62,14.62,0,0,0,2.87-1.37s2,2.43,2.47,2.43c1.63,0,6-2.34,6-2.34s1.1,1,1.63,1a12.23,12.23,0,0,0,2.59-1.16s.91,1.5,1.41,1.5,3.75-2.56,3.75-2.56A10.46,10.46,0,0,0,67,44.91c0,.47,1.31,1.34,1.68,1.34s5.44-5.34,5.44-5.66c0-1.15-1.94-2.53-2.81-2.53s-5.16,2.53-5.16,2.53,0-.65-.22-.65-2.56,1.5-2.87,1.5-.44-.57-.44-.67,2.22-2.27,2.22-2.45a7.36,7.36,0,0,0-2.08-1.9c-.35,0-5.83,6.35-7.7,6.35s4.37-4.17,4.37-4.48c0,0-1.6-2-2.31-2s-5.41,3.4-5.41,3.4-2.53-2.11-3.42-2.11-3.19,2.13-3.19,2.13a8.38,8.38,0,0,0-2-1.19,33.76,33.76,0,0,0-3.85,2.21,10.29,10.29,0,0,0-2.17-1.31c-2,0,0-.9,0-1.4C37.12,37.31,32.73,34.75,31.16,34.75Z"/><path class="cls-1" d="M102.55,3.63c-4.45,0-34.07,47.55-33.81,53.29,0,0,4.35,2.58,5.28,2.54,2.5-.11,14.63-12.59,14.61-13s-2.64-1.83-3.2-1.83c-.73,0-9.5,11-11.52,11.1-4.2.19,25.54-46.85,29.87-47,1.62-.07-15.34,27.53-15.31,28.15s3.27,2.48,3.69,2.47S109.77,8.43,109.68,6.43C109.65,5.64,103.9,3.57,102.55,3.63Z"/><path class="cls-1" d="M102.39,24.29C96,39.5,90,43.25,90,44.21A4.77,4.77,0,0,0,92.14,47c.42,0,5.8-5.12,6.59-5.12-.38,1-.48,1.06-.48,1.46a9.53,9.53,0,0,0,3.06,2.67c.44,0,2.28-1.61,2.28-1.61s2.49,2.62,3.08,2.62S111,43.27,111,43.27s2.17,2,2.88,2S115.92,44,115.92,44s1.53,2.72,2.33,2.72,5.51-5.53,6.42-5.53c-1.61,2.91.08,6.37,2.56,6.69.94,0,.5-1.11-.29-2,.12-1.8.06-3.91,1.18-5.88A6.85,6.85,0,0,0,125.44,38C125,38,122,40.56,122,40.56s-2.24-2.23-2.89-2.23-3.07,2.2-3.07,2.2a6.8,6.8,0,0,0,.8-1.7c0-.41-2-1.5-2.39-1.5s-1.31.9-1.31.9-1.92-1.64-2.58-1.64S103.33,42,103.33,42c-.71,0,2-3.78,2-4.11S102.7,36,102.2,36a20.83,20.83,0,0,0-3.39,1.8s6.67-11.16,6.67-11.87S103.73,24.29,102.39,24.29Z"/><path class="cls-1" d="M6.27,28.44C4.36,37.69,0,43.21,0,44.73c0,1.05,2.9,2.58,3.52,2.58s7.72-9.72,7.72-9.72-4.5,22.32-4.5,22.75,3.19,2.72,4.06,2.72S34.52,15.71,44.52,2.75C46.08,1.19,42.21,0,41.58,0S16.3,40.31,13.15,50.69c0-1.75,3.31-17.06,3.31-18s-2.53-1.94-3.28-1.94-4.57,4.06-4.57,4.06a39.19,39.19,0,0,0,1.75-4.25C10.36,30.13,8.71,28.44,6.27,28.44Z"/></g></g></svg>